<svg xmlns="http://www.w3.org/2000/svg" width="15.286" height="20.388" viewBox="0 0 15.286 20.388">
  <g id="businessman" transform="translate(0)">
    <path id="Path_20" data-name="Path 20" d="M64.885,20.388h5a.3.3,0,0,0,0-.6H67.063v-5.17a.3.3,0,1,0-.6,0V16.5h-1.8V14.926a2.369,2.369,0,0,1,1.367-2.134l2.494-.974,1.506,1.249a.58.58,0,0,0,.834-.1v6.822h-1.2a.3.3,0,1,0,0,.6h8.876a.818.818,0,0,0,.817-.817V17.466a.3.3,0,1,0-.6,0v2.106a.22.22,0,0,1-.219.219H76.956V17.1h1.8v.407a.3.3,0,1,0,.6,0v-2.58a2.944,2.944,0,0,0-1.74-2.687l-.006,0L73.6,10.683V9.9a3.112,3.112,0,0,0,1.257-2.143,1.407,1.407,0,0,0,1.355-1.4,1.356,1.356,0,0,0-.572-1.093,2.519,2.519,0,0,1,.537-1.428.966.966,0,0,0,.005-1.19,4,4,0,0,0-.949-.9.346.346,0,0,0,.012-.429A4.251,4.251,0,0,0,72.146,0h-.01C69.7,0,68.763,1.259,68.6,1.945a1.193,1.193,0,0,0-.931.5c-.393.561-.392,1.495,0,2.851a1.4,1.4,0,0,0,.879,2.453,3.112,3.112,0,0,0,1.268,2.151v.766l-4.008,1.566-.005,0a2.944,2.944,0,0,0-1.74,2.687v4.646a.818.818,0,0,0,.817.817Zm7.072-.6h-.493V12.458h.493Zm.219-8.317a.586.586,0,0,0-.208.387h-.516a.589.589,0,0,0-.208-.387l-.834-.691a.78.78,0,0,0,.007-.093h0v-.447a3.06,3.06,0,0,0,1.315.264h.018A3.117,3.117,0,0,0,73,10.246v.446h0a.6.6,0,0,0,.007.09Zm5.213,1.317a2.364,2.364,0,0,1,1.367,2.134V16.5h-1.8V14.621a.3.3,0,1,0-.6,0v5.17h-3.8V12.968a.58.58,0,0,0,.835.1l1.5-1.243,2.5.969Zm-3.139-1.216L73.022,12.6l-.453-.671.822-.682Zm.628-4.424V5.563a.85.85,0,0,1,.735.788A.807.807,0,0,1,74.878,7.153Zm-6.349,0a.8.8,0,0,1,0-1.6ZM68.7,4.491a.593.593,0,0,0-.169.459,1.5,1.5,0,0,0-.319.056c-.391-1.417-.2-1.993-.05-2.214a.6.6,0,0,1,.485-.252.575.575,0,0,0,.537-.45C69.271,1.676,69.973.6,72.131.6a4.185,4.185,0,0,1,2.316.755A.349.349,0,0,0,74.454,2a2.926,2.926,0,0,1,1.255,1,.369.369,0,0,1,0,.455,3.1,3.1,0,0,0-.644,1.532c-.04-.009-.134-.026-.185-.031V4.9a.568.568,0,0,0-.567-.567.24.24,0,0,1-.24-.24.9.9,0,0,0-.672-.871,6.752,6.752,0,0,0-3.39,0,.9.9,0,0,0-.659.72c-.025.147.012.226-.083.32C69.126,4.4,68.944,4.247,68.7,4.491Zm.429,2.883V4.926a.84.84,0,0,0,.807-.836.3.3,0,0,1,.225-.292,6.152,6.152,0,0,1,3.09,0,.3.3,0,0,1,.225.292.838.838,0,0,0,.807.836V7.374a2.582,2.582,0,0,1-4,2.118A2.5,2.5,0,0,1,69.127,7.373Zm.893,3.861.833.69L70.4,12.6l-1.237-1.026ZM64.665,17.1h1.8v2.692H64.885a.22.22,0,0,1-.219-.219Z" transform="translate(-64.068 0)" fill="#444652"/>
  </g>
</svg>
