<svg xmlns="http://www.w3.org/2000/svg" width="17.169" height="17.169" viewBox="0 0 17.169 17.169">
  <g id="menu_1_" data-name="menu (1)" transform="translate(-0.001)">
    <g id="Group_152" data-name="Group 152" transform="translate(0.001)">
      <g id="Group_151" data-name="Group 151" transform="translate(0)">
        <path id="Path_33" data-name="Path 33" d="M6.237,0H1.308A1.309,1.309,0,0,0,0,1.307V6.236A1.309,1.309,0,0,0,1.308,7.544H6.237A1.309,1.309,0,0,0,7.545,6.236V1.307A1.309,1.309,0,0,0,6.237,0Z" transform="translate(-0.001)" fill="#c2c3cc"/>
        <path id="Path_34" data-name="Path 34" d="M172.742,0h-4.929a1.309,1.309,0,0,0-1.307,1.307V6.236a1.309,1.309,0,0,0,1.307,1.307h4.929a1.309,1.309,0,0,0,1.307-1.307V1.307A1.309,1.309,0,0,0,172.742,0Z" transform="translate(-156.881)" fill="#c2c3cc"/>
        <path id="Path_35" data-name="Path 35" d="M6.237,166.507H1.308A1.309,1.309,0,0,0,0,167.814v4.929a1.309,1.309,0,0,0,1.307,1.307H6.237a1.309,1.309,0,0,0,1.307-1.307v-4.929A1.309,1.309,0,0,0,6.237,166.507Z" transform="translate(-0.001 -156.882)" fill="#c2c3cc"/>
        <path id="Path_36" data-name="Path 36" d="M172.742,166.507h-4.929a1.309,1.309,0,0,0-1.307,1.307v4.929a1.309,1.309,0,0,0,1.307,1.307h4.929a1.309,1.309,0,0,0,1.307-1.307v-4.929A1.309,1.309,0,0,0,172.742,166.507Z" transform="translate(-156.881 -156.882)" fill="#c2c3cc"/>
      </g>
    </g>
  </g>
</svg>
