<svg xmlns="http://www.w3.org/2000/svg" width="25.123" height="25.123" viewBox="0 0 25.123 25.123">
  <path id="messenger" d="M12.562,0a12.563,12.563,0,0,0-10.9,18.815L.047,23.841a.981.981,0,0,0,1.235,1.235l5.026-1.618A12.562,12.562,0,1,0,12.562,0Zm0,23.16a10.568,10.568,0,0,1-5.61-1.606.982.982,0,0,0-.821-.1L2.5,22.621l1.168-3.628a.982.982,0,0,0-.1-.821,10.6,10.6,0,1,1,8.993,4.989Zm1.227-10.6a1.227,1.227,0,1,1-1.227-1.227A1.227,1.227,0,0,1,13.788,12.562Zm4.907,0a1.227,1.227,0,1,1-1.227-1.227A1.227,1.227,0,0,1,18.7,12.562Zm-9.814,0a1.227,1.227,0,1,1-1.227-1.227A1.227,1.227,0,0,1,8.881,12.562Zm0,0" fill="#0b6fe0"/>
</svg>
