<svg xmlns="http://www.w3.org/2000/svg" width="24.375" height="24.375" viewBox="0 0 24.375 24.375">
  <path id="Path" d="M136.988,274.018l-11.274-10.806a.761.761,0,0,0-1.054,0l-11.285,10.817a1.287,1.287,0,0,0-.376.9,1.271,1.271,0,0,0,1.27,1.27h1.777v9.648a1.524,1.524,0,0,0,1.524,1.523h4.316a.762.762,0,0,0,.762-.762v-6.6a.255.255,0,0,1,.254-.254h4.57a.255.255,0,0,1,.254.254v6.6a.762.762,0,0,0,.762.762H132.8a1.524,1.524,0,0,0,1.523-1.523V276.2h1.777a1.271,1.271,0,0,0,1.27-1.27A1.3,1.3,0,0,0,136.988,274.018Z" transform="translate(-113 -263)" fill="#fff"/>
</svg>
