<svg xmlns="http://www.w3.org/2000/svg" width="18.977" height="18.977" viewBox="0 0 18.977 18.977">
  <path id="preferences" d="M3.87,2.187h-.2V.741a.741.741,0,1,0-1.483,0V2.187h-.2A1.985,1.985,0,0,0,0,4.172V6.057A1.985,1.985,0,0,0,1.986,8.043h.2V18.236a.741.741,0,0,0,1.483,0V8.043a2.061,2.061,0,0,0,1.605-.582,1.973,1.973,0,0,0,.582-1.4V4.172A1.985,1.985,0,0,0,3.87,2.187Zm.5,3.87a.5.5,0,0,1-.5.5H1.986a.5.5,0,0,1-.5-.5V4.172a.5.5,0,0,1,.5-.5H3.87a.5.5,0,0,1,.5.5ZM16.991,4.374h-.2V.741a.741.741,0,1,0-1.483,0V4.374h-.2a1.986,1.986,0,0,0-1.986,1.986V8.244a1.985,1.985,0,0,0,1.986,1.986h.2v8.006a.741.741,0,0,0,1.483,0V10.23h.2a1.985,1.985,0,0,0,1.986-1.986V6.359A1.985,1.985,0,0,0,16.991,4.374Zm.5,3.87a.5.5,0,0,1-.5.5H15.106a.5.5,0,0,1-.5-.5V6.359a.5.5,0,0,1,.5-.5h1.885a.5.5,0,0,1,.5.5Zm-7.063,2.69h-.2V.741a.741.741,0,0,0-1.483,0V10.934h-.2A1.985,1.985,0,0,0,6.56,12.92V14.8A1.985,1.985,0,0,0,8.546,16.79h.2v1.446a.741.741,0,0,0,1.483,0V16.79h.2A1.986,1.986,0,0,0,12.416,14.8V12.92A1.985,1.985,0,0,0,10.431,10.934Zm.5,3.87a.5.5,0,0,1-.5.5H8.546a.5.5,0,0,1-.5-.5V12.92a.5.5,0,0,1,.5-.5h1.885a.5.5,0,0,1,.5.5Z" transform="translate(0)" fill="#444652"/>
</svg>
