<svg id="building" xmlns="http://www.w3.org/2000/svg" width="15.986" height="19.921" viewBox="0 0 15.986 19.921">
  <g id="Group_35" data-name="Group 35" transform="translate(0)">
    <g id="Group_34" data-name="Group 34">
      <path id="Path_7" data-name="Path 7" d="M22.738,19.257H22.09V8.3a.332.332,0,0,0-.332-.332H17.11V.332A.332.332,0,0,0,16.778,0H8.146a.332.332,0,0,0-.332.332V19.256h-.4a.332.332,0,0,0,0,.664H22.738a.332.332,0,0,0,0-.664Zm-11.272,0H10.138V16.268a.332.332,0,0,1,.332-.332h.664a.332.332,0,0,1,.332.332ZM12.794,8.3V19.256H12.13V16.268a1,1,0,0,0-1-1H10.47a1,1,0,0,0-1,1v2.988h-1V.664h7.968v7.3h-3.32A.332.332,0,0,0,12.794,8.3Zm8.632,10.956H13.458V8.632h7.968Z" transform="translate(-7.083)" fill="#444652"/>
      <path id="Path_8" data-name="Path 8" d="M202.324,112h-1.992a.332.332,0,0,0-.332.332v1.992a.332.332,0,0,0,.332.332h1.992a.332.332,0,0,0,.332-.332v-1.992A.332.332,0,0,0,202.324,112Zm-.332,1.992h-1.328v-1.328h1.328Z" transform="translate(-194.289 -107.352)" fill="#444652"/>
      <path id="Path_9" data-name="Path 9" d="M202.324,32h-1.992a.332.332,0,0,0-.332.332v1.992a.332.332,0,0,0,.332.332h1.992a.332.332,0,0,0,.332-.332V32.332A.332.332,0,0,0,202.324,32Zm-.332,1.992h-1.328V32.664h1.328Z" transform="translate(-194.289 -30.672)" fill="#444652"/>
      <path id="Path_10" data-name="Path 10" d="M122.324,112h-1.992a.332.332,0,0,0-.332.332v1.992a.332.332,0,0,0,.332.332h1.992a.332.332,0,0,0,.332-.332v-1.992A.332.332,0,0,0,122.324,112Zm-.332,1.992h-1.328v-1.328h1.328Z" transform="translate(-117.609 -107.352)" fill="#444652"/>
      <path id="Path_11" data-name="Path 11" d="M122.324,32h-1.992a.332.332,0,0,0-.332.332v1.992a.332.332,0,0,0,.332.332h1.992a.332.332,0,0,0,.332-.332V32.332A.332.332,0,0,0,122.324,32Zm-.332,1.992h-1.328V32.664h1.328Z" transform="translate(-117.609 -30.672)" fill="#444652"/>
      <path id="Path_12" data-name="Path 12" d="M122.324,192h-1.992a.332.332,0,0,0-.332.332v1.992a.332.332,0,0,0,.332.332h1.992a.332.332,0,0,0,.332-.332v-1.992A.332.332,0,0,0,122.324,192Zm-.332,1.992h-1.328v-1.328h1.328Z" transform="translate(-117.609 -184.032)" fill="#444652"/>
      <path id="Path_13" data-name="Path 13" d="M122.324,272h-1.992a.332.332,0,0,0-.332.332v1.992a.332.332,0,0,0,.332.332h1.992a.332.332,0,0,0,.332-.332v-1.992A.332.332,0,0,0,122.324,272Zm-.332,1.992h-1.328v-1.328h1.328Z" transform="translate(-117.609 -260.712)" fill="#444652"/>
      <path id="Path_14" data-name="Path 14" d="M320.332,306.656h1.992a.332.332,0,0,0,.332-.332v-1.992a.332.332,0,0,0-.332-.332h-1.992a.332.332,0,0,0-.332.332v1.992A.332.332,0,0,0,320.332,306.656Zm.332-1.992h1.328v1.328h-1.328Z" transform="translate(-309.309 -291.384)" fill="#444652"/>
      <path id="Path_15" data-name="Path 15" d="M320.332,226.656h1.992a.332.332,0,0,0,.332-.332v-1.992a.332.332,0,0,0-.332-.332h-1.992a.332.332,0,0,0-.332.332v1.992A.332.332,0,0,0,320.332,226.656Zm.332-1.992h1.328v1.328h-1.328Z" transform="translate(-309.309 -214.704)" fill="#444652"/>
      <path id="Path_16" data-name="Path 16" d="M320.332,386.656h1.992a.332.332,0,0,0,.332-.332v-1.992a.332.332,0,0,0-.332-.332h-1.992a.332.332,0,0,0-.332.332v1.992A.332.332,0,0,0,320.332,386.656Zm.332-1.992h1.328v1.328h-1.328Z" transform="translate(-309.309 -368.064)" fill="#444652"/>
      <path id="Path_17" data-name="Path 17" d="M240.332,306.656h1.992a.332.332,0,0,0,.332-.332v-1.992a.332.332,0,0,0-.332-.332h-1.992a.332.332,0,0,0-.332.332v1.992A.332.332,0,0,0,240.332,306.656Zm.332-1.992h1.328v1.328h-1.328Z" transform="translate(-232.629 -291.384)" fill="#444652"/>
      <path id="Path_18" data-name="Path 18" d="M240.332,226.656h1.992a.332.332,0,0,0,.332-.332v-1.992a.332.332,0,0,0-.332-.332h-1.992a.332.332,0,0,0-.332.332v1.992A.332.332,0,0,0,240.332,226.656Zm.332-1.992h1.328v1.328h-1.328Z" transform="translate(-232.629 -214.704)" fill="#444652"/>
      <path id="Path_19" data-name="Path 19" d="M240.332,386.656h1.992a.332.332,0,0,0,.332-.332v-1.992a.332.332,0,0,0-.332-.332h-1.992a.332.332,0,0,0-.332.332v1.992A.332.332,0,0,0,240.332,386.656Zm.332-1.992h1.328v1.328h-1.328Z" transform="translate(-232.629 -368.064)" fill="#444652"/>
    </g>
  </g>
</svg>
