<svg xmlns="http://www.w3.org/2000/svg" width="24.079" height="21.348" viewBox="0 0 24.079 21.348">
  <g id="Vacant_Land" data-name="Vacant Land" transform="translate(0 0)">
    <path id="Path" d="M344.247,433.694l-3.347-7.885a.64.64,0,0,0-.583-.38H334.74v2.764a2.51,2.51,0,1,1-5.02,0v-2.764h-5.578a.641.641,0,0,0-.583.38l-3.3,7.885a.679.679,0,0,0,.051.583.628.628,0,0,0,.532.279h22.818a.585.585,0,0,0,.507-.279A.551.551,0,0,0,344.247,433.694Z" transform="translate(-320.219 -413.208)" fill="#00a9d6"/>
    <path id="Shape" d="M6.288,15.9a.95.95,0,0,1-.938-.938V8.7H.634A.627.627,0,0,1,0,8.063V.634A.627.627,0,0,1,.634,0H11.942a.627.627,0,0,1,.634.634V8.063a.627.627,0,0,1-.634.633H7.226v6.263A.951.951,0,0,1,6.288,15.9ZM3.119,5.147c-.33,0-.609.412-.634.939,0,.526.278.938.634.938H9.432c.355,0,.633-.412.633-.938s-.278-.939-.633-.939Zm0-3.449c-.33,0-.609.412-.634.938,0,.526.278.938.634.938H9.432c.355,0,.633-.412.633-.938S9.787,1.7,9.432,1.7Z" transform="translate(5.749)" fill="#00a9d6"/>
  </g>
</svg>
