<svg id="_146" data-name="146" xmlns="http://www.w3.org/2000/svg" xmlns:xlink="http://www.w3.org/1999/xlink" width="16" height="16" viewBox="0 0 16 16">
  <defs>
    <clipPath id="clip-path">
      <rect id="_146_Background_Mask_" data-name="146 (Background/Mask)" width="16" height="16" fill="none"/>
    </clipPath>
  </defs>
  <rect id="_146_Background_Mask_2" data-name="146 (Background/Mask)" width="16" height="16" fill="none"/>
  <g id="_146-2" data-name="146" clip-path="url(#clip-path)">
    <g id="Group" transform="translate(2 2)">
      <path id="Vector" d="M2.466,3.429A2.3,2.3,0,0,1,0,1.33V0H12V1.33a2.293,2.293,0,0,1-2.46,2.1Z" transform="translate(0 6.857)" fill="none" stroke="#c4c4c4" stroke-linecap="round" stroke-linejoin="round" stroke-miterlimit="10" stroke-width="1" stroke-dasharray="0 0"/>
      <path id="Vector-2" data-name="Vector" d="M.378,1.714C0,1.714,0,1.329,0,.863V.851C0,.385,0,0,.378,0H11.622C12,0,12,.385,12,.851V.863c0,.478,0,.851-.378.851Z" transform="translate(0 5.143)" fill="none" stroke="#c4c4c4" stroke-linecap="round" stroke-linejoin="round" stroke-miterlimit="10" stroke-width="1" stroke-dasharray="0 0"/>
      <path id="Vector-3" data-name="Vector" d="M.437,1.714A.434.434,0,0,1,0,1.286V.429A.434.434,0,0,1,.437,0h.839a.434.434,0,0,1,.438.429v.857a.434.434,0,0,1-.438.429Z" transform="translate(1.714 10.286)" fill="none" stroke="#c4c4c4" stroke-linecap="round" stroke-miterlimit="10" stroke-width="1" stroke-dasharray="0 0"/>
      <path id="Vector-4" data-name="Vector" d="M.438,1.714A.434.434,0,0,1,0,1.286V.429A.434.434,0,0,1,.438,0h.839a.434.434,0,0,1,.437.429v.857a.434.434,0,0,1-.437.429Z" transform="translate(8.574 10.286)" fill="none" stroke="#c4c4c4" stroke-linecap="round" stroke-miterlimit="10" stroke-width="1" stroke-dasharray="0 0"/>
      <path id="Vector-5" data-name="Vector" d="M0,.721C0,.25.576,0,1.286,0c.857,0,1.286.384,1.286.855V5.143" transform="translate(8.571)" fill="none" stroke="#c4c4c4" stroke-linecap="round" stroke-miterlimit="10" stroke-width="1" stroke-dasharray="0 0"/>
      <path id="Vector-6" data-name="Vector" d="M0,1.286A1.287,1.287,0,0,1,1.286,0,1.3,1.3,0,0,1,2.571,1.286H0Z" transform="translate(6.857 0.857)" fill="none" stroke="#c4c4c4" stroke-linecap="round" stroke-miterlimit="10" stroke-width="1" stroke-dasharray="0 0"/>
      <path id="Vector-7" data-name="Vector" d="M0,0V.429" transform="translate(6.857 3.086)" fill="none" stroke="#c4c4c4" stroke-linecap="round" stroke-miterlimit="10" stroke-width="1" stroke-dasharray="0 0"/>
      <path id="Vector-8" data-name="Vector" d="M0,0V.429" transform="translate(9.429 3.086)" fill="none" stroke="#c4c4c4" stroke-linecap="round" stroke-miterlimit="10" stroke-width="1" stroke-dasharray="0 0"/>
      <path id="Vector-9" data-name="Vector" d="M0,0V.429" transform="translate(8.143 3.429)" fill="none" stroke="#c4c4c4" stroke-linecap="round" stroke-miterlimit="10" stroke-width="1" stroke-dasharray="0 0"/>
    </g>
  </g>
</svg>
