<svg xmlns="http://www.w3.org/2000/svg" width="21.533" height="21.437" viewBox="0 0 21.533 21.437">
  <g id="XMLID_95_" transform="translate(0 -1.104)">
    <path id="XMLID_98_" d="M8.941,303.261q-.137.012-.274.012a3.239,3.239,0,0,1-.732-.091L2.419,308.7a.693.693,0,0,0,0,.98L3.846,311.1a.693.693,0,0,0,.979,0l6.629-6.628-1.229-1.326Z" transform="translate(-2.118 -288.767)" fill="#c2c3cc"/>
    <path id="XMLID_97_" d="M259.306,5.656a.662.662,0,0,0-.937,0L254.8,9.231a.865.865,0,1,1-1.224-1.223l3.557-3.556a.689.689,0,0,0-.975-.975L252.6,7.033a.865.865,0,0,1-1.224-1.223l3.574-3.574a.663.663,0,0,0-.938-.938l-4.021,4.021a3.717,3.717,0,0,0-.959,3.561l2.7,2.7a3.717,3.717,0,0,0,3.56-.96l4.022-4.021A.663.663,0,0,0,259.306,5.656Z" transform="translate(-237.967)" fill="#c2c3cc"/>
    <path id="XMLID_96_" d="M1.807,9.15a.729.729,0,0,0-.515-.213.74.74,0,0,0-.122.01.729.729,0,0,0-.535.4,6.354,6.354,0,0,0,1.226,7.26l3.421,3.42a1.79,1.79,0,0,0,1.267.525q.076,0,.152-.006l1.986-.169,8.66,9.342a.73.73,0,0,0,.521.233h.013a.734.734,0,0,0,.518-.213l1.483-1.483a.73.73,0,0,0,0-1.032Z" transform="translate(0 -7.489)" fill="#c2c3cc"/>
  </g>
</svg>
