<svg xmlns="http://www.w3.org/2000/svg" width="20.345" height="16.958" viewBox="0 0 20.345 16.958">
  <g id="menu_2_" data-name="menu (2)" transform="translate(0 -24.726)">
    <g id="Group_154" data-name="Group 154" transform="translate(0 24.726)">
      <g id="Group_153" data-name="Group 153">
        <path id="Path_37" data-name="Path 37" d="M98.65,24.726H86.568a1.209,1.209,0,0,0-1.208,1.208v1.751a1.209,1.209,0,0,0,1.208,1.208H98.65a1.209,1.209,0,0,0,1.208-1.208V25.934A1.209,1.209,0,0,0,98.65,24.726Z" transform="translate(-79.513 -24.726)" fill="#c2c3cc"/>
        <path id="Path_38" data-name="Path 38" d="M98.65,118.087H86.568a1.209,1.209,0,0,0-1.208,1.208v1.751a1.209,1.209,0,0,0,1.208,1.208H98.65a1.209,1.209,0,0,0,1.208-1.208v-1.751A1.209,1.209,0,0,0,98.65,118.087Z" transform="translate(-79.513 -111.692)" fill="#c2c3cc"/>
        <path id="Path_39" data-name="Path 39" d="M98.65,211.448H86.568a1.209,1.209,0,0,0-1.208,1.208v1.751a1.209,1.209,0,0,0,1.208,1.208H98.65a1.209,1.209,0,0,0,1.208-1.208v-1.751A1.209,1.209,0,0,0,98.65,211.448Z" transform="translate(-79.513 -198.657)" fill="#c2c3cc"/>
        <path id="Path_40" data-name="Path 40" d="M3.149,24.726H1.208A1.209,1.209,0,0,0,0,25.934v1.751a1.209,1.209,0,0,0,1.208,1.208H3.149a1.209,1.209,0,0,0,1.208-1.208V25.934A1.209,1.209,0,0,0,3.149,24.726Z" transform="translate(0 -24.726)" fill="#c2c3cc"/>
        <path id="Path_41" data-name="Path 41" d="M3.149,118.087H1.208A1.209,1.209,0,0,0,0,119.295v1.751a1.209,1.209,0,0,0,1.208,1.208H3.149a1.209,1.209,0,0,0,1.208-1.208v-1.751A1.209,1.209,0,0,0,3.149,118.087Z" transform="translate(0 -111.692)" fill="#c2c3cc"/>
        <path id="Path_42" data-name="Path 42" d="M3.149,211.448H1.208A1.209,1.209,0,0,0,0,212.656v1.751a1.209,1.209,0,0,0,1.208,1.208H3.149a1.209,1.209,0,0,0,1.208-1.208v-1.751A1.209,1.209,0,0,0,3.149,211.448Z" transform="translate(0 -198.657)" fill="#c2c3cc"/>
      </g>
    </g>
  </g>
</svg>
