<svg xmlns="http://www.w3.org/2000/svg" width="25.783" height="21.68" viewBox="0 0 25.783 21.68">
  <path id="medicine-briefcase" d="M22.465,17.99h-.5v-.8a.35.35,0,0,0-.35-.35H19.652a.35.35,0,0,0-.35.35v.8h-1.74V17.1A2.466,2.466,0,0,0,15.1,14.638H10.684A2.466,2.466,0,0,0,8.22,17.1v.889H6.481v-.8a.35.35,0,0,0-.35-.35H4.169a.35.35,0,0,0-.35.35v.8h-.5A3.318,3.318,0,0,0,0,21.308V33a3.318,3.318,0,0,0,3.318,3.318H22.465A3.318,3.318,0,0,0,25.783,33V21.308A3.318,3.318,0,0,0,22.465,17.99ZM9.622,17.1a1.064,1.064,0,0,1,1.062-1.062H15.1A1.064,1.064,0,0,1,16.161,17.1v.889H9.622Zm3.27,16.028a5.976,5.976,0,1,1,5.976-5.976A5.976,5.976,0,0,1,12.891,33.13Zm4.486-4.508a.35.35,0,0,1-.35.351l-2.314,0v2.314a.35.35,0,0,1-.35.35H11.42a.35.35,0,0,1-.35-.35V28.978l-2.311,0h0a.35.35,0,0,1-.35-.35l0-2.943a.35.35,0,0,1,.35-.351l2.314,0V23.02a.35.35,0,0,1,.35-.35h2.943a.35.35,0,0,1,.35.35v2.311l2.311,0h0a.35.35,0,0,1,.35.35Z" transform="translate(0 -14.638)" fill="#c2c3cc"/>
</svg>
