<svg xmlns="http://www.w3.org/2000/svg" width="18.977" height="22.977" viewBox="0 0 18.977 22.977">
  <path id="preferences" d="M3.87,2.648h-.2V.9A.831.831,0,0,0,2.928,0a.831.831,0,0,0-.741.9v1.75h-.2A2.224,2.224,0,0,0,0,5.052V7.334a2.224,2.224,0,0,0,1.986,2.4h.2V22.079a.831.831,0,0,0,.741.9.831.831,0,0,0,.741-.9V9.738a1.837,1.837,0,0,0,1.605-.7,2.665,2.665,0,0,0,.582-1.7V5.052a2.224,2.224,0,0,0-1.986-2.4Zm.5,4.686a.563.563,0,0,1-.5.609H1.986a.563.563,0,0,1-.5-.609V5.052a.563.563,0,0,1,.5-.609H3.87a.563.563,0,0,1,.5.609ZM16.991,5.3h-.2V.9a.831.831,0,0,0-.741-.9.831.831,0,0,0-.741.9V5.3h-.2a2.226,2.226,0,0,0-1.986,2.4V9.982a2.224,2.224,0,0,0,1.986,2.4h.2v9.693a.831.831,0,0,0,.741.9.831.831,0,0,0,.741-.9V12.386h.2a2.224,2.224,0,0,0,1.986-2.4V7.7A2.224,2.224,0,0,0,16.991,5.3Zm.5,4.686a.563.563,0,0,1-.5.609H15.106a.563.563,0,0,1-.5-.609V7.7a.564.564,0,0,1,.5-.609h1.885a.563.563,0,0,1,.5.609Zm-7.063,3.257h-.2V.9A.831.831,0,0,0,9.488,0a.831.831,0,0,0-.741.9V13.239h-.2a2.224,2.224,0,0,0-1.986,2.4v2.282a2.224,2.224,0,0,0,1.986,2.4h.2v1.75a.831.831,0,0,0,.741.9.831.831,0,0,0,.741-.9v-1.75h.2a2.226,2.226,0,0,0,1.986-2.4V15.643A2.224,2.224,0,0,0,10.431,13.239Zm.5,4.686a.564.564,0,0,1-.5.609H8.546a.563.563,0,0,1-.5-.609V15.643a.563.563,0,0,1,.5-.609h1.885a.563.563,0,0,1,.5.609Z" transform="translate(0)" fill="#444652"/>
</svg>
