<svg xmlns="http://www.w3.org/2000/svg" width="23.166" height="18.926" viewBox="0 0 23.166 18.926">
  <path id="XMLID_874_" d="M22.035,56.353v-.441a2.318,2.318,0,0,0-1.056-1.943V49.156a2.3,2.3,0,0,0-2.3-2.3H4.483a2.3,2.3,0,0,0-2.3,2.3v4.813a2.318,2.318,0,0,0-1.056,1.943v.441A1.52,1.52,0,0,0,0,57.82v5.162A1.519,1.519,0,0,0,1.445,64.5v.611a.677.677,0,0,0,1.355,0V64.5H20.367v.609a.677.677,0,0,0,1.355,0V64.5a1.519,1.519,0,0,0,1.445-1.515V57.82A1.519,1.519,0,0,0,22.035,56.353Zm-18.494-7.2a.943.943,0,0,1,.942-.942h14.2a.943.943,0,0,1,.942.942v4.437h-.9V52.4a1.517,1.517,0,0,0-1.516-1.516H13.561A1.517,1.517,0,0,0,12.046,52.4v1.194h-.925V52.4a1.517,1.517,0,0,0-1.516-1.516H5.96A1.517,1.517,0,0,0,4.445,52.4v1.194h-.9ZM17.367,52.4v1.033a.161.161,0,0,1-.161.161H13.561a.161.161,0,0,1-.161-.161V52.4a.161.161,0,0,1,.161-.161h3.645A.161.161,0,0,1,17.367,52.4Zm-7.6,0v1.033a.161.161,0,0,1-.161.161H5.96a.161.161,0,0,1-.161-.161V52.4a.161.161,0,0,1,.161-.161H9.605A.161.161,0,0,1,9.766,52.4Zm-7.28,3.512a.965.965,0,0,1,.964-.963H19.717a.965.965,0,0,1,.964.963V56.3H2.486Zm19.326,7.071a.162.162,0,0,1-.162.162H1.517a.162.162,0,0,1-.162-.162V57.82a.162.162,0,0,1,.162-.162H21.65a.162.162,0,0,1,.162.162v5.162Z" transform="translate(0 -46.86)" fill="#444652"/>
</svg>
