<svg xmlns="http://www.w3.org/2000/svg" width="30.424" height="26.796" viewBox="0 0 30.424 26.796">
  <g id="shopping-cart_2_" data-name="shopping-cart (2)" transform="translate(0.25 0.25)">
    <path id="Path_993" data-name="Path 993" d="M9.64,17.531h15.9a.877.877,0,0,0,.843-.636L29.885,4.623a.876.876,0,0,0-.843-1.117H7.618L6.991.686A.877.877,0,0,0,6.136,0H.877a.877.877,0,0,0,0,1.753H5.433L8.6,15.994a2.629,2.629,0,0,0,1.045,5.042H25.536a.877.877,0,0,0,0-1.753H9.642a.876.876,0,0,1,0-1.753ZM27.88,5.259,24.875,15.778H10.345L8.007,5.259Zm0,0" stroke="#000" stroke-width="0.5"/>
    <path id="Path_994" data-name="Path 994" d="M150,362.63a2.63,2.63,0,1,0,2.63-2.63A2.633,2.633,0,0,0,150,362.63Zm2.63-.877a.877.877,0,1,1-.877.877A.878.878,0,0,1,152.63,361.753Zm0,0" transform="translate(-141.235 -338.963)" stroke="#000" stroke-width="0.5"/>
    <path id="Path_995" data-name="Path 995" d="M362,362.63a2.63,2.63,0,1,0,2.63-2.63A2.633,2.633,0,0,0,362,362.63Zm2.63-.877a.877.877,0,1,1-.876.877A.878.878,0,0,1,364.63,361.753Zm0,0" transform="translate(-340.846 -338.963)" stroke="#000" stroke-width="0.5"/>
  </g>
</svg>
