<svg xmlns="http://www.w3.org/2000/svg" width="20.575" height="20.573" viewBox="0 0 20.575 20.573">
  <g id="chat" transform="translate(0 -0.015)">
    <g id="Group_321" data-name="Group 321" transform="translate(0 0.015)">
      <g id="Group_320" data-name="Group 320" transform="translate(0 0)">
        <path id="Path_892" data-name="Path 892" d="M9,.015C4.039.015,0,3.3,0,7.344a6.737,6.737,0,0,0,2.844,5.348A4.5,4.5,0,0,1,.488,14.82a.643.643,0,0,0,.129,1.267c.014,0,.069,0,.162,0a13.956,13.956,0,0,0,6.144-1.618,10.5,10.5,0,0,0,2.079.2c4.962,0,9-3.288,9-7.329S13.964.015,9,.015Z" transform="translate(0 -0.015)" fill="#444652"/>
      </g>
    </g>
    <g id="Group_323" data-name="Group 323" transform="translate(6.044 9.489)">
      <g id="Group_322" data-name="Group 322">
        <path id="Path_893" data-name="Path 893" d="M164.459,245.575a3.435,3.435,0,0,1-1.872-1.4,5.774,5.774,0,0,0,2.361-4.539,5.579,5.579,0,0,0-1.621-3.85c-1.143,3.715-5.164,6.47-9.951,6.47a12.144,12.144,0,0,1-1.884-.145c-.365.176-.723.332-1.074.471a8.085,8.085,0,0,0,6.815,3.355,9.146,9.146,0,0,0,1.744-.163,10.017,10.017,0,0,0,4.518,1.112,6.063,6.063,0,0,0,.914-.058.642.642,0,0,0,.05-1.258Z" transform="translate(-150.418 -235.791)" fill="#444652"/>
      </g>
    </g>
  </g>
</svg>
