<svg xmlns="http://www.w3.org/2000/svg" width="21.765" height="23.216" viewBox="0 0 21.765 23.216">
  <g id="group-chat" transform="translate(-16)">
    <path id="Path_897" data-name="Path 897" d="M378.054,399.68a3.849,3.849,0,0,1-4.616,1.359,4.761,4.761,0,0,1,.1.968v2.086a2.025,2.025,0,0,1-.117.68H378.3a.68.68,0,0,0,.68-.68v-2.086A3.389,3.389,0,0,0,378.054,399.68Z" transform="translate(-341.213 -381.557)" fill="#444652"/>
    <path id="Path_898" data-name="Path 898" d="M21.441,402.007a4.759,4.759,0,0,1,.1-.968,3.849,3.849,0,0,1-4.616-1.359A3.388,3.388,0,0,0,16,402.007v2.086a.68.68,0,0,0,.68.68h4.878a2.024,2.024,0,0,1-.117-.68Z" transform="translate(0 -381.557)" fill="#444652"/>
    <path id="Path_899" data-name="Path 899" d="M93.947,9.568h1.134v2.494a.68.68,0,0,0,1.165.477l2.929-2.971h3.842a2.951,2.951,0,0,0,2.947-2.947V2.947A2.951,2.951,0,0,0,103.016,0H93.947A2.951,2.951,0,0,0,91,2.947V6.62A2.951,2.951,0,0,0,93.947,9.568Zm.453-6.8h8.162a.68.68,0,0,1,0,1.36H94.4a.68.68,0,1,1,0-1.36Zm0,2.721h6.8a.68.68,0,0,1,0,1.36H94.4a.68.68,0,1,1,0-1.36Z" transform="translate(-71.599 0)" fill="#444652"/>
    <circle id="Ellipse_30" data-name="Ellipse 30" cx="2.426" cy="2.426" r="2.426" transform="translate(31.043 13.587)" fill="#444652"/>
    <ellipse id="Ellipse_31" data-name="Ellipse 31" cx="2.669" cy="2.426" rx="2.669" ry="2.426" transform="translate(17.456 13.587)" fill="#444652"/>
    <path id="Path_900" data-name="Path 900" d="M166.924,399.68a3.388,3.388,0,0,0-.924,2.327v2.086a.68.68,0,0,0,.68.68h6.8a.68.68,0,0,0,.68-.68v-2.086a3.388,3.388,0,0,0-.924-2.327A3.85,3.85,0,0,1,166.924,399.68Z" transform="translate(-143.198 -381.557)" fill="#444652"/>
    <ellipse id="Ellipse_32" data-name="Ellipse 32" cx="2.669" cy="2.426" rx="2.669" ry="2.426" transform="translate(24.249 13.587)" fill="#444652"/>
  </g>
</svg>
