<svg id="Group_49" data-name="Group 49" xmlns="http://www.w3.org/2000/svg" width="14.997" height="21.329" viewBox="0 0 14.997 21.329">
  <g id="Group_27" data-name="Group 27" transform="translate(0 0)">
    <g id="Group_26" data-name="Group 26">
      <path id="Path_3" data-name="Path 3" d="M83.5,0a7.5,7.5,0,0,0-6.379,11.442l5.952,9.592a.625.625,0,0,0,.531.3h0a.625.625,0,0,0,.531-.3l5.8-9.685A7.5,7.5,0,0,0,83.5,0Zm5.368,10.7L83.593,19.5l-5.412-8.721A6.253,6.253,0,1,1,88.867,10.7Z" transform="translate(-76)" fill="#444652"/>
    </g>
  </g>
  <g id="Group_29" data-name="Group 29" transform="translate(3.749 3.749)">
    <g id="Group_28" data-name="Group 28">
      <path id="Path_4" data-name="Path 4" d="M169.749,90a3.749,3.749,0,1,0,3.749,3.749A3.754,3.754,0,0,0,169.749,90Zm0,6.257a2.508,2.508,0,1,1,2.5-2.508A2.51,2.51,0,0,1,169.749,96.257Z" transform="translate(-166 -90)" fill="#444652"/>
    </g>
  </g>
</svg>
