<svg xmlns="http://www.w3.org/2000/svg" width="21.003" height="22.095" viewBox="0 0 21.003 22.095">
  <g id="invitation" transform="translate(-9.824 0)">
    <g id="Group_338" data-name="Group 338" transform="translate(28.776 6.505)">
      <g id="Group_337" data-name="Group 337">
        <path id="Path_904" data-name="Path 904" d="M350.825,117.05v2.757l1.751-1.3Z" transform="translate(-350.825 -117.05)" fill="#444652"/>
      </g>
    </g>
    <g id="Group_340" data-name="Group 340" transform="translate(18.556 0)">
      <g id="Group_339" data-name="Group 339" transform="translate(0 0)">
        <path id="Path_905" data-name="Path 905" d="M169.759.386a1.669,1.669,0,0,0-2.129-.006l-.706.6h3.551Z" transform="translate(-166.925 0)" fill="#444652"/>
      </g>
    </g>
    <g id="Group_342" data-name="Group 342" transform="translate(9.824 9.09)">
      <g id="Group_341" data-name="Group 341" transform="translate(0)">
        <path id="Path_906" data-name="Path 906" d="M21.985,170.158a2.724,2.724,0,0,1-1.651.545,2.777,2.777,0,0,1-1.656-.545L9.824,163.55v11.332a1.663,1.663,0,0,0,1.651,1.673h17.7a1.663,1.663,0,0,0,1.651-1.673V163.55Z" transform="translate(-9.824 -163.55)" fill="#444652"/>
      </g>
    </g>
    <g id="Group_344" data-name="Group 344" transform="translate(10.13 6.555)">
      <g id="Group_343" data-name="Group 343" transform="translate(0)">
        <path id="Path_907" data-name="Path 907" d="M15.325,119.356l1.7,1.262V117.95Z" transform="translate(-15.325 -117.95)" fill="#444652"/>
      </g>
    </g>
    <g id="Group_346" data-name="Group 346" transform="translate(12.937 2.092)">
      <g id="Group_345" data-name="Group 345" transform="translate(0)">
        <path id="Path_908" data-name="Path 908" d="M65.825,37.65v7.959l6.391,4.757a1.71,1.71,0,0,0,2.006,0l6.33-4.719v-8ZM69.771,42.1h3a.556.556,0,0,1,0,1.112h-3a.556.556,0,0,1,0-1.112Zm6.892,3.89H69.771a.556.556,0,0,1,0-1.112h6.892a.556.556,0,1,1,0,1.112Z" transform="translate(-65.825 -37.65)" fill="#444652"/>
      </g>
    </g>
  </g>
</svg>
