<svg xmlns="http://www.w3.org/2000/svg" width="26.809" height="22.215" viewBox="0 0 26.809 22.215">
  <g id="XMLID_2_" transform="translate(0)">
    <path id="XMLID_4_" d="M4.161,111.79H18.279a1.366,1.366,0,0,0,0-2.716H4.161l1.576-1.756a1.47,1.47,0,0,0,0-1.92,1.132,1.132,0,0,0-1.723,0L.357,109.472c-.028.031-.055.064-.08.1l-.017.026c-.019.026-.037.053-.054.081l-.014.025c-.017.029-.033.059-.048.089l-.008.019c-.015.033-.03.067-.043.1l0,.013c-.013.037-.026.074-.036.112,0,0,0,.01,0,.015-.01.037-.019.075-.026.114,0,.011,0,.023,0,.035-.005.032-.01.064-.013.1s-.006.09-.006.136,0,.091.006.136.008.065.013.1c0,.011,0,.023,0,.034.007.039.016.077.026.115l0,.014c.01.038.023.076.036.113l0,.012c.013.035.028.069.043.1l.008.018c.015.031.031.061.048.09l.013.024c.017.028.035.055.054.081l.017.026c.025.034.052.067.08.1l3.656,4.073a1.132,1.132,0,0,0,1.723,0,1.47,1.47,0,0,0,0-1.92Z" transform="translate(0 -99.325)" fill="#444652"/>
    <path id="XMLID_5_" d="M111.331,42.3a9.729,9.729,0,0,0-8.279,4.918,1.457,1.457,0,0,0,.332,1.884,1.144,1.144,0,0,0,1.691-.37,7.352,7.352,0,0,1,6.256-3.718c4.153,0,7.531,3.765,7.531,8.392s-3.378,8.392-7.531,8.392a7.352,7.352,0,0,1-6.246-3.7,1.144,1.144,0,0,0-1.692-.365,1.457,1.457,0,0,0-.328,1.885,9.728,9.728,0,0,0,8.265,4.9c5.5,0,9.968-4.983,9.968-11.107S116.827,42.3,111.331,42.3Z" transform="translate(-94.49 -42.299)" fill="#444652"/>
  </g>
</svg>
