<svg id="phone-call" xmlns="http://www.w3.org/2000/svg" width="21.531" height="21.576" viewBox="0 0 21.531 21.576">
  <g id="Group_184" data-name="Group 184">
    <path id="Path_49" data-name="Path 49" d="M21.506,15.835l-3.011-3.011a2,2,0,0,0-3.334.753,2.049,2.049,0,0,1-2.366,1.29A9.285,9.285,0,0,1,7.2,9.275a1.949,1.949,0,0,1,1.29-2.366,2,2,0,0,0,.753-3.334L6.235.565a2.148,2.148,0,0,0-2.9,0L1.289,2.608c-2.043,2.151.215,7.85,5.269,12.9s10.754,7.42,12.9,5.269l2.043-2.043A2.148,2.148,0,0,0,21.506,15.835Z" transform="translate(-0.539 0)" fill="#0b6fe0"/>
  </g>
</svg>
