<svg xmlns="http://www.w3.org/2000/svg" width="18.862" height="18.862" viewBox="0 0 18.862 18.862">
  <g id="price-tag" transform="translate(0.25 0.25)">
    <g id="Group_31" data-name="Group 31">
      <g id="Group_30" data-name="Group 30">
        <path id="Path_5" data-name="Path 5" d="M16.45,0H11.6A3.42,3.42,0,0,0,9.162,1.008L.653,9.518a2.229,2.229,0,0,0,0,3.152l5.04,5.04a2.229,2.229,0,0,0,3.152,0L17.354,9.2a3.42,3.42,0,0,0,1.008-2.435V1.913A1.915,1.915,0,0,0,16.45,0ZM17.6,6.766a2.66,2.66,0,0,1-.783,1.893L8.3,17.169a1.5,1.5,0,0,1-2.07,0l-5.04-5.04a1.464,1.464,0,0,1,0-2.07L9.7,1.549A2.662,2.662,0,0,1,11.6.765H16.45A1.149,1.149,0,0,1,17.6,1.913V6.766Z" fill="#444652" stroke="#444652" stroke-width="0.5"/>
      </g>
    </g>
    <g id="Group_33" data-name="Group 33" transform="translate(12.242 2.295)">
      <g id="Group_32" data-name="Group 32">
        <path id="Path_6" data-name="Path 6" d="M343.247,64a1.913,1.913,0,1,0,1.913,1.913A1.915,1.915,0,0,0,343.247,64Zm0,3.06a1.148,1.148,0,1,1,1.148-1.148A1.149,1.149,0,0,1,343.247,67.06Z" transform="translate(-341.334 -64)" fill="#444652" stroke="#444652" stroke-width="0.5"/>
      </g>
    </g>
  </g>
</svg>
