<svg xmlns="http://www.w3.org/2000/svg" width="24.277" height="24" viewBox="0 0 24.277 24">
  <path id="settings" d="M22.946,9.394l-1.9-.239a9.39,9.39,0,0,0-.576-1.374l1.174-1.495a1.474,1.474,0,0,0-.123-1.979L19.926,2.732A1.521,1.521,0,0,0,17.918,2.6l-1.51,1.161A9.587,9.587,0,0,0,15.017,3.2L14.775,1.32A1.509,1.509,0,0,0,13.272,0H11.006A1.509,1.509,0,0,0,9.5,1.317L9.261,3.2a9.476,9.476,0,0,0-1.391.569L6.359,2.6a1.518,1.518,0,0,0-2,.122L2.764,4.3a1.478,1.478,0,0,0-.128,1.986L3.81,7.781a9.28,9.28,0,0,0-.576,1.374l-1.9.239A1.5,1.5,0,0,0,0,10.88v2.24a1.5,1.5,0,0,0,1.332,1.486l1.9.239a9.39,9.39,0,0,0,.576,1.374l-1.174,1.5a1.474,1.474,0,0,0,.123,1.979l1.593,1.575a1.522,1.522,0,0,0,2.008.126l1.511-1.161a9.4,9.4,0,0,0,1.39.569L9.5,22.678A1.509,1.509,0,0,0,11.006,24h2.266a1.509,1.509,0,0,0,1.5-1.317l.242-1.88a9.622,9.622,0,0,0,1.39-.569L17.919,21.4a1.517,1.517,0,0,0,2-.122L21.515,19.7a1.477,1.477,0,0,0,.128-1.985l-1.174-1.494a9.173,9.173,0,0,0,.576-1.374l1.9-.239a1.5,1.5,0,0,0,1.335-1.486V10.88a1.5,1.5,0,0,0-1.331-1.486ZM12.139,17A5,5,0,1,1,17.2,12a5.035,5.035,0,0,1-5.058,5Z" fill="#444652"/>
</svg>
