<svg xmlns="http://www.w3.org/2000/svg" width="12.924" height="21" viewBox="0 0 12.924 21">
  <g id="voice" transform="translate(-18.588)">
    <g id="Group_159" data-name="Group 159" transform="translate(18.588)">
      <path id="Path_45" data-name="Path 45" d="M34.821,15.923a3.754,3.754,0,0,0,3.75-3.75V3.75a3.75,3.75,0,0,0-7.5,0v8.423A3.754,3.754,0,0,0,34.821,15.923Z" transform="translate(-28.359)" fill="#444652"/>
      <path id="Path_46" data-name="Path 46" d="M31.077,45.715h-.747a.435.435,0,0,0-.434.434v1.527a4.846,4.846,0,1,1-9.693,0V46.149a.435.435,0,0,0-.434-.434h-.747a.435.435,0,0,0-.434.434v1.527a6.554,6.554,0,0,0,5.654,6.41v1.082H20.907a.435.435,0,0,0-.434.434v.746a.435.435,0,0,0,.434.434h8.285a.435.435,0,0,0,.434-.434V55.6a.435.435,0,0,0-.434-.434H25.858V54.086a6.554,6.554,0,0,0,5.654-6.41V46.149A.434.434,0,0,0,31.077,45.715Z" transform="translate(-18.588 -35.784)" fill="#444652"/>
    </g>
  </g>
</svg>
